<?xml version="1.0" standalone="no"?><!DOCTYPE svg PUBLIC "-//W3C//DTD SVG 1.1//EN" "http://www.w3.org/Graphics/SVG/1.1/DTD/svg11.dtd"><svg t="1523871407714" class="icon" style="" viewBox="0 0 1024 1024" version="1.1" xmlns="http://www.w3.org/2000/svg" p-id="1053" xmlns:xlink="http://www.w3.org/1999/xlink" width="200" height="200"><defs><style type="text/css"></style></defs><path d="M426.65984 42.65984q78.00832 0 149.17632 30.49472t122.49088 81.83808 81.83808 122.49088 30.49472 149.17632q0 66.99008-21.83168 128.32768t-62.1568 111.32928l242.33984 241.99168q12.32896 12.32896 12.32896 30.33088 0 18.3296-12.16512 30.49472t-30.49472 12.16512q-18.00192 0-30.33088-12.32896l-241.99168-242.33984q-49.99168 40.32512-111.32928 62.1568t-128.32768 21.83168q-78.00832 0-149.17632-30.49472t-122.49088-81.83808-81.83808-122.49088-30.49472-149.17632 30.49472-149.17632 81.83808-122.49088 122.49088-81.83808 149.17632-30.49472zM426.65984 128q-60.66176 0-115.99872 23.67488t-95.3344 63.67232-63.67232 95.3344-23.67488 115.99872 23.67488 115.99872 63.67232 95.3344 95.3344 63.67232 115.99872 23.67488 115.99872-23.67488 95.3344-63.67232 63.67232-95.3344 23.67488-115.99872-23.67488-115.99872-63.67232-95.3344-95.3344-63.67232-115.99872-23.67488zM426.65984 256q17.67424 0 30.16704 12.4928t12.4928 30.16704l0 85.34016 85.34016 0q17.67424 0 30.16704 12.4928t12.4928 30.16704-12.4928 30.16704-30.16704 12.4928l-85.34016 0 0 85.34016q0 17.67424-12.4928 30.16704t-30.16704 12.4928-30.16704-12.4928-12.4928-30.16704l0-85.34016-85.34016 0q-17.67424 0-30.16704-12.4928t-12.4928-30.16704 12.4928-30.16704 30.16704-12.4928l85.34016 0 0-85.34016q0-17.67424 12.4928-30.16704t30.16704-12.4928z" p-id="1054"></path></svg>
